{"title":"Life Of Pi 2012 Hindi ESubs HD DvDRip XviD Sample Included ~ rDX","uid":8059209,"size":734302380,"categoryP":"video","categoryS":"movies","magnet":"?xt=urn:btih:c9f8deb61c2f8c20d9f1e2dc1df3e04160c7f81e&amp;dn=Life+Of+Pi+2012+Hindi+ESubs+HD+DvDRip+XviD+Sample+Included+%7E+rDX&amp;tr=udp%3A%2F%2Ftracker.openbittorrent.com%3A80&amp;tr=udp%3A%2F%2Fopen.demonii.com%3A1337&amp;tr=udp%3A%2F%2Ftracker.coppersurfer.tk%3A6969&amp;tr=udp%3A%2F%2Fexodus.desync.com%3A6969","seeders":3,"leechers":1,"uploader":"basicssom","files":3,"time":1359035997,"description":"Life Of Pi 2012 Hindi Movies ESubs HD DvDRip XviD Sample Included ~ rDX\n\nScreen Shots :\n &lt;a href=&quot;\nhttp://myimghosting.serveftp.com/LifeOfPiDVD.html&quot; rel=&quot;nofollow&quot; target=&quot;_NEW&quot;&gt;\nhttp://myimghosting.serveftp.com/LifeOfPiDVD.html&lt;/a&gt;\n &lt;a href=&quot;\nhttp://myimghost.cwahi.net/LifeOfPiDVD.html&quot; rel=&quot;nofollow&quot; target=&quot;_NEW&quot;&gt;\nhttp://myimghost.cwahi.net/LifeOfPiDVD.html&lt;/a&gt;\n\n\nFormat                                   : AVI\nFormat/Info                              : Audio Video Interleave\nFile size                                : 687 MiB\nDuration                                 : 1h 58mn\nOverall bit rate                         : 809 Kbps\nWriting library                          : MPlayer\n\nVideo\nID                                       : 0\nFormat                                   : MPEG-4 Visual\nFormat profile                           : Advanced Simple@L5\nFormat settings, BVOP                    : 2\nFormat settings, QPel                    : Yes\nFormat settings, GMC                     : No warppoints\nFormat settings, Matrix                  : Default (H.263)\nCodec ID                                 : XVID\nCodec ID/Hint                            : XviD\nDuration                                 : 1h 58mn\nBit rate                                 : 710 Kbps\nWidth                                    : 640 pixels\nHeight                                   : 352 pixels\nDisplay aspect ratio                     : 16:9\nFrame rate                               : 23.976 fps\nColor space                              : YUV\nChroma subsampling                       : 4:2:0\nBit depth                                : 8 bits\nScan type                                : Progressive\nCompression mode                         : Lossy\nBits/(Pixel*Frame)                       : 0.131\nStream size                              : 603 MiB (88%)\nWriting library                          : XviD 1.2.1 (UTC 2008-12-04)\n\nAudio\nID                                       : 1\nFormat                                   : MPEG Audio\nFormat version                           : Version 1\nFormat profile                           : Layer 3\nMode                                     : Joint stereo\nMode extension                           : MS Stereo\nCodec ID                                 : 55\nCodec ID/Hint                            : MP3\nDuration                                 : 1h 56mn\nBit rate mode                            : Constant\nBit rate                                 : 96.0 Kbps\nChannel(s)                               : 2 channels\nSampling rate                            : 32.0 KHz\nCompression mode                         : Lossy\nStream size                              : 80.2 MiB (12%)\nAlignment                                : Split accross interleaves\nInterleave, duration                     : 508 ms (12.18 video frames)\nInterleave, preload duration             : 500 ms","torrent":{"xt":"urn:btih:c9f8deb61c2f8c20d9f1e2dc1df3e04160c7f81e","amp;dn":"Life+Of+Pi+2012+Hindi+ESubs+HD+DvDRip+XviD+Sample+Included+%7E+rDX","amp;tr":["udp%3A%2F%2Ftracker.openbittorrent.com%3A80","udp%3A%2F%2Fopen.demonii.com%3A1337","udp%3A%2F%2Ftracker.coppersurfer.tk%3A6969","udp%3A%2F%2Fexodus.desync.com%3A6969"],"infoHash":"c9f8deb61c2f8c20d9f1e2dc1df3e04160c7f81e","infoHashBuffer":{"type":"Buffer","data":[201,248,222,182,28,47,140,32,217,241,226,220,29,243,224,65,96,199,248,30]},"announce":[],"urlList":[]}}